<mxfile host="app.diagrams.net" modified="2022-08-16T18:10:12.056Z" agent="5.0 (X11; Linux x86_64) AppleWebKit/537.36 (KHTML, like Gecko) Chrome/104.0.0.0 Safari/537.36" etag="HkdYL43iZ1oSkh1GQJL0" version="18.1.3" type="github">
  <diagram id="tZhQoliHMsQrR8sVe7rs" name="Page-1">
    <mxGraphModel dx="1287" dy="516" grid="1" gridSize="10" guides="1" tooltips="1" connect="1" arrows="1" fold="1" page="1" pageScale="1" pageWidth="850" pageHeight="1100" math="0" shadow="0">
      <root>
        <mxCell id="0" />
        <mxCell id="1" parent="0" />
        <mxCell id="p_OIgGEhC8bRpb1Tx-OY-1" value="ECSVPC" style="points=[[0,0],[0.25,0],[0.5,0],[0.75,0],[1,0],[1,0.25],[1,0.5],[1,0.75],[1,1],[0.75,1],[0.5,1],[0.25,1],[0,1],[0,0.75],[0,0.5],[0,0.25]];outlineConnect=0;gradientColor=none;html=1;whiteSpace=wrap;fontSize=12;fontStyle=0;container=1;pointerEvents=0;collapsible=0;recursiveResize=0;shape=mxgraph.aws4.group;grIcon=mxgraph.aws4.group_vpc;strokeColor=#248814;fillColor=none;verticalAlign=top;align=left;spacingLeft=30;fontColor=#AAB7B8;dashed=0;" vertex="1" parent="1">
          <mxGeometry x="27.5" y="290" width="800" height="450" as="geometry" />
        </mxCell>
        <mxCell id="p_OIgGEhC8bRpb1Tx-OY-17" value="Availability Zone A" style="sketch=0;outlineConnect=0;gradientColor=none;html=1;whiteSpace=wrap;fontSize=12;fontStyle=0;shape=mxgraph.aws4.group;grIcon=mxgraph.aws4.group_availability_zone;strokeColor=#545B64;fillColor=none;verticalAlign=top;align=left;spacingLeft=30;fontColor=#545B64;dashed=1;" vertex="1" parent="p_OIgGEhC8bRpb1Tx-OY-1">
          <mxGeometry x="420" y="80" width="173" height="270" as="geometry" />
        </mxCell>
        <mxCell id="p_OIgGEhC8bRpb1Tx-OY-18" value="Availability Zone B" style="sketch=0;outlineConnect=0;gradientColor=none;html=1;whiteSpace=wrap;fontSize=12;fontStyle=0;shape=mxgraph.aws4.group;grIcon=mxgraph.aws4.group_availability_zone;strokeColor=#545B64;fillColor=none;verticalAlign=top;align=left;spacingLeft=30;fontColor=#545B64;dashed=1;" vertex="1" parent="p_OIgGEhC8bRpb1Tx-OY-1">
          <mxGeometry x="635" y="80" width="150" height="270" as="geometry" />
        </mxCell>
        <mxCell id="p_OIgGEhC8bRpb1Tx-OY-20" value="SubnetB" style="sketch=0;outlineConnect=0;gradientColor=none;html=1;whiteSpace=wrap;fontSize=12;fontStyle=0;shape=mxgraph.aws4.group;grIcon=mxgraph.aws4.group_subnet;strokeColor=#879196;fillColor=none;verticalAlign=top;align=left;spacingLeft=30;fontColor=#879196;dashed=0;" vertex="1" parent="p_OIgGEhC8bRpb1Tx-OY-1">
          <mxGeometry x="650" y="120" width="115" height="210" as="geometry" />
        </mxCell>
        <mxCell id="p_OIgGEhC8bRpb1Tx-OY-15" value="SubnetA" style="sketch=0;outlineConnect=0;gradientColor=none;html=1;whiteSpace=wrap;fontSize=12;fontStyle=0;shape=mxgraph.aws4.group;grIcon=mxgraph.aws4.group_subnet;strokeColor=#879196;fillColor=none;verticalAlign=top;align=left;spacingLeft=30;fontColor=#879196;dashed=0;" vertex="1" parent="p_OIgGEhC8bRpb1Tx-OY-1">
          <mxGeometry x="457.75" y="120" width="104.5" height="210" as="geometry" />
        </mxCell>
        <mxCell id="p_OIgGEhC8bRpb1Tx-OY-31" style="edgeStyle=orthogonalEdgeStyle;rounded=0;orthogonalLoop=1;jettySize=auto;html=1;fontSize=8;exitX=0.013;exitY=0.526;exitDx=0;exitDy=0;exitPerimeter=0;" edge="1" parent="p_OIgGEhC8bRpb1Tx-OY-1" source="p_OIgGEhC8bRpb1Tx-OY-21" target="p_OIgGEhC8bRpb1Tx-OY-17">
          <mxGeometry relative="1" as="geometry">
            <Array as="points">
              <mxPoint x="505" y="36" />
            </Array>
          </mxGeometry>
        </mxCell>
        <mxCell id="p_OIgGEhC8bRpb1Tx-OY-32" style="edgeStyle=orthogonalEdgeStyle;rounded=0;orthogonalLoop=1;jettySize=auto;html=1;fontSize=8;" edge="1" parent="p_OIgGEhC8bRpb1Tx-OY-1" source="p_OIgGEhC8bRpb1Tx-OY-21" target="p_OIgGEhC8bRpb1Tx-OY-18">
          <mxGeometry relative="1" as="geometry">
            <Array as="points">
              <mxPoint x="710" y="35" />
            </Array>
          </mxGeometry>
        </mxCell>
        <mxCell id="p_OIgGEhC8bRpb1Tx-OY-42" value="LBs" style="text;html=1;strokeColor=none;fillColor=none;align=center;verticalAlign=middle;whiteSpace=wrap;rounded=0;fontSize=8;" vertex="1" parent="p_OIgGEhC8bRpb1Tx-OY-1">
          <mxGeometry x="570" y="80" width="35" height="20" as="geometry" />
        </mxCell>
        <mxCell id="p_OIgGEhC8bRpb1Tx-OY-43" value="" style="outlineConnect=0;dashed=0;verticalLabelPosition=bottom;verticalAlign=top;align=center;html=1;shape=mxgraph.aws3.ecs;fillColor=#F58534;gradientColor=none;fontSize=8;" vertex="1" parent="p_OIgGEhC8bRpb1Tx-OY-1">
          <mxGeometry x="486" y="200" width="48" height="50" as="geometry" />
        </mxCell>
        <mxCell id="p_OIgGEhC8bRpb1Tx-OY-44" value="" style="outlineConnect=0;dashed=0;verticalLabelPosition=bottom;verticalAlign=top;align=center;html=1;shape=mxgraph.aws3.ecs;fillColor=#F58534;gradientColor=none;fontSize=8;" vertex="1" parent="p_OIgGEhC8bRpb1Tx-OY-1">
          <mxGeometry x="685" y="200" width="56" height="50" as="geometry" />
        </mxCell>
        <mxCell id="p_OIgGEhC8bRpb1Tx-OY-45" value="ECS Fargate Service Containers" style="text;html=1;strokeColor=none;fillColor=none;align=center;verticalAlign=middle;whiteSpace=wrap;rounded=0;fontSize=8;" vertex="1" parent="p_OIgGEhC8bRpb1Tx-OY-1">
          <mxGeometry x="474" y="270" width="60" height="30" as="geometry" />
        </mxCell>
        <mxCell id="p_OIgGEhC8bRpb1Tx-OY-46" value="ECS Fargate Service Containers" style="text;html=1;strokeColor=none;fillColor=none;align=center;verticalAlign=middle;whiteSpace=wrap;rounded=0;fontSize=8;" vertex="1" parent="p_OIgGEhC8bRpb1Tx-OY-1">
          <mxGeometry x="683" y="270" width="60" height="30" as="geometry" />
        </mxCell>
        <mxCell id="p_OIgGEhC8bRpb1Tx-OY-82" value="Availability Zone A" style="sketch=0;outlineConnect=0;gradientColor=none;html=1;whiteSpace=wrap;fontSize=12;fontStyle=0;shape=mxgraph.aws4.group;grIcon=mxgraph.aws4.group_availability_zone;strokeColor=#545B64;fillColor=none;verticalAlign=top;align=left;spacingLeft=30;fontColor=#545B64;dashed=1;" vertex="1" parent="p_OIgGEhC8bRpb1Tx-OY-1">
          <mxGeometry x="10" y="80" width="173" height="270" as="geometry" />
        </mxCell>
        <mxCell id="p_OIgGEhC8bRpb1Tx-OY-83" value="Availability Zone B" style="sketch=0;outlineConnect=0;gradientColor=none;html=1;whiteSpace=wrap;fontSize=12;fontStyle=0;shape=mxgraph.aws4.group;grIcon=mxgraph.aws4.group_availability_zone;strokeColor=#545B64;fillColor=none;verticalAlign=top;align=left;spacingLeft=30;fontColor=#545B64;dashed=1;" vertex="1" parent="p_OIgGEhC8bRpb1Tx-OY-1">
          <mxGeometry x="225" y="80" width="150" height="270" as="geometry" />
        </mxCell>
        <mxCell id="p_OIgGEhC8bRpb1Tx-OY-84" value="SubnetB" style="sketch=0;outlineConnect=0;gradientColor=none;html=1;whiteSpace=wrap;fontSize=12;fontStyle=0;shape=mxgraph.aws4.group;grIcon=mxgraph.aws4.group_subnet;strokeColor=#879196;fillColor=none;verticalAlign=top;align=left;spacingLeft=30;fontColor=#879196;dashed=0;" vertex="1" parent="p_OIgGEhC8bRpb1Tx-OY-1">
          <mxGeometry x="240" y="120" width="115" height="210" as="geometry" />
        </mxCell>
        <mxCell id="p_OIgGEhC8bRpb1Tx-OY-85" value="SubnetA" style="sketch=0;outlineConnect=0;gradientColor=none;html=1;whiteSpace=wrap;fontSize=12;fontStyle=0;shape=mxgraph.aws4.group;grIcon=mxgraph.aws4.group_subnet;strokeColor=#879196;fillColor=none;verticalAlign=top;align=left;spacingLeft=30;fontColor=#879196;dashed=0;" vertex="1" parent="p_OIgGEhC8bRpb1Tx-OY-1">
          <mxGeometry x="47.75" y="120" width="104.5" height="210" as="geometry" />
        </mxCell>
        <mxCell id="p_OIgGEhC8bRpb1Tx-OY-86" style="edgeStyle=orthogonalEdgeStyle;rounded=0;orthogonalLoop=1;jettySize=auto;html=1;fontSize=8;" edge="1" parent="p_OIgGEhC8bRpb1Tx-OY-1" source="p_OIgGEhC8bRpb1Tx-OY-88" target="p_OIgGEhC8bRpb1Tx-OY-82">
          <mxGeometry relative="1" as="geometry">
            <Array as="points">
              <mxPoint x="95" y="45" />
            </Array>
          </mxGeometry>
        </mxCell>
        <mxCell id="p_OIgGEhC8bRpb1Tx-OY-87" style="edgeStyle=orthogonalEdgeStyle;rounded=0;orthogonalLoop=1;jettySize=auto;html=1;fontSize=8;" edge="1" parent="p_OIgGEhC8bRpb1Tx-OY-1" source="p_OIgGEhC8bRpb1Tx-OY-88" target="p_OIgGEhC8bRpb1Tx-OY-83">
          <mxGeometry relative="1" as="geometry">
            <Array as="points">
              <mxPoint x="300" y="45" />
            </Array>
          </mxGeometry>
        </mxCell>
        <mxCell id="p_OIgGEhC8bRpb1Tx-OY-88" value="" style="sketch=0;aspect=fixed;html=1;points=[];align=center;image;fontSize=12;image=img/lib/mscae/Load_Balancer_feature.svg;" vertex="1" parent="p_OIgGEhC8bRpb1Tx-OY-1">
          <mxGeometry x="175" y="20" width="50" height="50" as="geometry" />
        </mxCell>
        <mxCell id="p_OIgGEhC8bRpb1Tx-OY-89" value="LBs" style="text;html=1;strokeColor=none;fillColor=none;align=center;verticalAlign=middle;whiteSpace=wrap;rounded=0;fontSize=8;" vertex="1" parent="p_OIgGEhC8bRpb1Tx-OY-1">
          <mxGeometry x="160" y="80" width="35" height="20" as="geometry" />
        </mxCell>
        <mxCell id="p_OIgGEhC8bRpb1Tx-OY-90" value="" style="outlineConnect=0;dashed=0;verticalLabelPosition=bottom;verticalAlign=top;align=center;html=1;shape=mxgraph.aws3.ecs;fillColor=#F58534;gradientColor=none;fontSize=8;" vertex="1" parent="p_OIgGEhC8bRpb1Tx-OY-1">
          <mxGeometry x="76" y="200" width="48" height="50" as="geometry" />
        </mxCell>
        <mxCell id="p_OIgGEhC8bRpb1Tx-OY-91" value="" style="outlineConnect=0;dashed=0;verticalLabelPosition=bottom;verticalAlign=top;align=center;html=1;shape=mxgraph.aws3.ecs;fillColor=#F58534;gradientColor=none;fontSize=8;" vertex="1" parent="p_OIgGEhC8bRpb1Tx-OY-1">
          <mxGeometry x="275" y="200" width="56" height="50" as="geometry" />
        </mxCell>
        <mxCell id="p_OIgGEhC8bRpb1Tx-OY-92" value="ECS Fargate Service Containers" style="text;html=1;strokeColor=none;fillColor=none;align=center;verticalAlign=middle;whiteSpace=wrap;rounded=0;fontSize=8;" vertex="1" parent="p_OIgGEhC8bRpb1Tx-OY-1">
          <mxGeometry x="64" y="270" width="60" height="30" as="geometry" />
        </mxCell>
        <mxCell id="p_OIgGEhC8bRpb1Tx-OY-93" value="ECS Fargate Service Containers" style="text;html=1;strokeColor=none;fillColor=none;align=center;verticalAlign=middle;whiteSpace=wrap;rounded=0;fontSize=8;" vertex="1" parent="p_OIgGEhC8bRpb1Tx-OY-1">
          <mxGeometry x="273" y="270" width="60" height="30" as="geometry" />
        </mxCell>
        <mxCell id="p_OIgGEhC8bRpb1Tx-OY-21" value="" style="sketch=0;aspect=fixed;html=1;points=[];align=center;image;fontSize=12;image=img/lib/mscae/Load_Balancer_feature.svg;" vertex="1" parent="p_OIgGEhC8bRpb1Tx-OY-1">
          <mxGeometry x="585" y="10" width="50" height="50" as="geometry" />
        </mxCell>
        <mxCell id="p_OIgGEhC8bRpb1Tx-OY-102" value="&lt;font style=&quot;font-size: 18px;&quot;&gt;....&lt;/font&gt;" style="text;html=1;strokeColor=none;fillColor=none;align=center;verticalAlign=middle;whiteSpace=wrap;rounded=0;fontSize=8;" vertex="1" parent="p_OIgGEhC8bRpb1Tx-OY-1">
          <mxGeometry x="375" y="190" width="35" height="20" as="geometry" />
        </mxCell>
        <mxCell id="p_OIgGEhC8bRpb1Tx-OY-116" value="App LB" style="text;html=1;strokeColor=none;fillColor=none;align=center;verticalAlign=middle;whiteSpace=wrap;rounded=0;fontSize=10;" vertex="1" parent="p_OIgGEhC8bRpb1Tx-OY-1">
          <mxGeometry x="124.5" y="10" width="60" height="30" as="geometry" />
        </mxCell>
        <mxCell id="p_OIgGEhC8bRpb1Tx-OY-117" value="App LB" style="text;html=1;strokeColor=none;fillColor=none;align=center;verticalAlign=middle;whiteSpace=wrap;rounded=0;fontSize=10;" vertex="1" parent="p_OIgGEhC8bRpb1Tx-OY-1">
          <mxGeometry x="534" width="60" height="30" as="geometry" />
        </mxCell>
        <mxCell id="p_OIgGEhC8bRpb1Tx-OY-118" value="Application Microservice" style="text;html=1;strokeColor=none;fillColor=none;align=center;verticalAlign=middle;whiteSpace=wrap;rounded=0;fontSize=10;" vertex="1" parent="p_OIgGEhC8bRpb1Tx-OY-1">
          <mxGeometry x="64.5" y="160" width="60" height="30" as="geometry" />
        </mxCell>
        <mxCell id="p_OIgGEhC8bRpb1Tx-OY-119" value="Application Microservice" style="text;html=1;strokeColor=none;fillColor=none;align=center;verticalAlign=middle;whiteSpace=wrap;rounded=0;fontSize=10;" vertex="1" parent="p_OIgGEhC8bRpb1Tx-OY-1">
          <mxGeometry x="273" y="160" width="60" height="30" as="geometry" />
        </mxCell>
        <mxCell id="p_OIgGEhC8bRpb1Tx-OY-120" value="Application Microservice" style="text;html=1;strokeColor=none;fillColor=none;align=center;verticalAlign=middle;whiteSpace=wrap;rounded=0;fontSize=10;" vertex="1" parent="p_OIgGEhC8bRpb1Tx-OY-1">
          <mxGeometry x="476.5" y="160" width="60" height="30" as="geometry" />
        </mxCell>
        <mxCell id="p_OIgGEhC8bRpb1Tx-OY-123" value="Application Microservice" style="text;html=1;strokeColor=none;fillColor=none;align=center;verticalAlign=middle;whiteSpace=wrap;rounded=0;fontSize=10;" vertex="1" parent="p_OIgGEhC8bRpb1Tx-OY-1">
          <mxGeometry x="677.5" y="160" width="60" height="30" as="geometry" />
        </mxCell>
        <mxCell id="p_OIgGEhC8bRpb1Tx-OY-3" value="MySQL DB&lt;br&gt;" style="shape=datastore;whiteSpace=wrap;html=1;" vertex="1" parent="1">
          <mxGeometry x="187.5" y="810" width="55" height="50" as="geometry" />
        </mxCell>
        <mxCell id="p_OIgGEhC8bRpb1Tx-OY-5" value="" style="outlineConnect=0;dashed=0;verticalLabelPosition=bottom;verticalAlign=top;align=center;html=1;shape=mxgraph.aws3.redis;fillColor=#2E73B8;gradientColor=none;" vertex="1" parent="1">
          <mxGeometry x="645" y="810" width="55" height="50" as="geometry" />
        </mxCell>
        <mxCell id="p_OIgGEhC8bRpb1Tx-OY-6" value="&lt;pre style=&quot;background-color: rgb(255, 255, 255); font-family: &amp;quot;JetBrains Mono&amp;quot;, monospace;&quot;&gt;&lt;font style=&quot;font-size: 8px;&quot;&gt;Redis&lt;/font&gt;&lt;/pre&gt;&lt;pre style=&quot;background-color: rgb(255, 255, 255); font-family: &amp;quot;JetBrains Mono&amp;quot;, monospace;&quot;&gt;&lt;font style=&quot;font-size: 8px;&quot;&gt;production2-redis.jndhmi.ng.0001.use1.cache.amazonaws.com&lt;/font&gt;&lt;/pre&gt;" style="text;html=1;align=center;verticalAlign=middle;resizable=0;points=[];autosize=1;strokeColor=none;fillColor=none;" vertex="1" parent="1">
          <mxGeometry x="527.5" y="840" width="290" height="70" as="geometry" />
        </mxCell>
        <mxCell id="p_OIgGEhC8bRpb1Tx-OY-7" value="&lt;pre style=&quot;background-color: rgb(255, 255, 255); font-family: &amp;quot;JetBrains Mono&amp;quot;, monospace;&quot;&gt;&lt;font style=&quot;font-size: 8px;&quot;&gt;electric-prod.cehrjlq9spbc.us-east-1.rds.amazonaws.com&lt;/font&gt;&lt;/pre&gt;" style="text;html=1;strokeColor=none;fillColor=none;align=center;verticalAlign=middle;whiteSpace=wrap;rounded=0;fontSize=8;" vertex="1" parent="1">
          <mxGeometry x="199" y="860" width="61" height="30" as="geometry" />
        </mxCell>
        <mxCell id="p_OIgGEhC8bRpb1Tx-OY-8" value="" style="sketch=0;points=[[0,0,0],[0.25,0,0],[0.5,0,0],[0.75,0,0],[1,0,0],[0,1,0],[0.25,1,0],[0.5,1,0],[0.75,1,0],[1,1,0],[0,0.25,0],[0,0.5,0],[0,0.75,0],[1,0.25,0],[1,0.5,0],[1,0.75,0]];outlineConnect=0;fontColor=#232F3E;gradientColor=#945DF2;gradientDirection=north;fillColor=#5A30B5;strokeColor=#ffffff;dashed=0;verticalLabelPosition=bottom;verticalAlign=top;align=center;html=1;fontSize=12;fontStyle=0;aspect=fixed;shape=mxgraph.aws4.resourceIcon;resIcon=mxgraph.aws4.elasticsearch_service;" vertex="1" parent="1">
          <mxGeometry x="437.5" y="880" width="60" height="60" as="geometry" />
        </mxCell>
        <mxCell id="p_OIgGEhC8bRpb1Tx-OY-9" value="&lt;pre style=&quot;background-color: rgb(255, 255, 255); font-family: &amp;quot;JetBrains Mono&amp;quot;, monospace;&quot;&gt;&lt;font style=&quot;font-size: 8px;&quot;&gt;ElasticSearch&lt;/font&gt;&lt;/pre&gt;&lt;pre style=&quot;background-color: rgb(255, 255, 255); font-family: &amp;quot;JetBrains Mono&amp;quot;, monospace;&quot;&gt;&lt;font style=&quot;font-size: 8px;&quot;&gt;c7e635b3584b4c1db95b2a5ed2de40a4.us-east-1.aws.found.io:9243&lt;/font&gt;&lt;/pre&gt;" style="text;html=1;strokeColor=none;fillColor=none;align=center;verticalAlign=middle;whiteSpace=wrap;rounded=0;fontSize=8;" vertex="1" parent="1">
          <mxGeometry x="437.5" y="941.5" width="60" height="30" as="geometry" />
        </mxCell>
        <mxCell id="p_OIgGEhC8bRpb1Tx-OY-11" value="" style="outlineConnect=0;dashed=0;verticalLabelPosition=bottom;verticalAlign=top;align=center;html=1;shape=mxgraph.aws3.s3;fillColor=#E05243;gradientColor=none;fontSize=8;" vertex="1" parent="1">
          <mxGeometry x="5" y="880" width="50" height="63" as="geometry" />
        </mxCell>
        <mxCell id="p_OIgGEhC8bRpb1Tx-OY-14" value="Photos S3 bucket" style="text;html=1;strokeColor=none;fillColor=none;align=center;verticalAlign=middle;whiteSpace=wrap;rounded=0;fontSize=8;" vertex="1" parent="1">
          <mxGeometry y="951.5" width="60" height="23" as="geometry" />
        </mxCell>
        <mxCell id="p_OIgGEhC8bRpb1Tx-OY-47" style="edgeStyle=orthogonalEdgeStyle;rounded=0;orthogonalLoop=1;jettySize=auto;html=1;entryX=0.5;entryY=0;entryDx=0;entryDy=0;fontSize=8;" edge="1" parent="1" source="p_OIgGEhC8bRpb1Tx-OY-45" target="p_OIgGEhC8bRpb1Tx-OY-3">
          <mxGeometry relative="1" as="geometry">
            <Array as="points">
              <mxPoint x="215.5" y="595" />
            </Array>
          </mxGeometry>
        </mxCell>
        <mxCell id="p_OIgGEhC8bRpb1Tx-OY-48" style="edgeStyle=orthogonalEdgeStyle;rounded=0;orthogonalLoop=1;jettySize=auto;html=1;fontSize=8;" edge="1" parent="1" source="p_OIgGEhC8bRpb1Tx-OY-45" target="p_OIgGEhC8bRpb1Tx-OY-8">
          <mxGeometry relative="1" as="geometry">
            <Array as="points">
              <mxPoint x="287.5" y="770" />
              <mxPoint x="467.5" y="770" />
            </Array>
          </mxGeometry>
        </mxCell>
        <mxCell id="p_OIgGEhC8bRpb1Tx-OY-49" style="edgeStyle=orthogonalEdgeStyle;rounded=0;orthogonalLoop=1;jettySize=auto;html=1;fontSize=8;" edge="1" parent="1" source="p_OIgGEhC8bRpb1Tx-OY-45" target="p_OIgGEhC8bRpb1Tx-OY-11">
          <mxGeometry relative="1" as="geometry" />
        </mxCell>
        <mxCell id="p_OIgGEhC8bRpb1Tx-OY-50" style="edgeStyle=orthogonalEdgeStyle;rounded=0;orthogonalLoop=1;jettySize=auto;html=1;fontSize=8;" edge="1" parent="1" source="p_OIgGEhC8bRpb1Tx-OY-45" target="p_OIgGEhC8bRpb1Tx-OY-5">
          <mxGeometry relative="1" as="geometry">
            <Array as="points">
              <mxPoint x="287.5" y="770" />
              <mxPoint x="672.5" y="770" />
            </Array>
          </mxGeometry>
        </mxCell>
        <mxCell id="p_OIgGEhC8bRpb1Tx-OY-51" style="edgeStyle=orthogonalEdgeStyle;rounded=0;orthogonalLoop=1;jettySize=auto;html=1;fontSize=8;" edge="1" parent="1" source="p_OIgGEhC8bRpb1Tx-OY-46" target="p_OIgGEhC8bRpb1Tx-OY-11">
          <mxGeometry relative="1" as="geometry" />
        </mxCell>
        <mxCell id="p_OIgGEhC8bRpb1Tx-OY-52" style="edgeStyle=orthogonalEdgeStyle;rounded=0;orthogonalLoop=1;jettySize=auto;html=1;entryX=0.5;entryY=0;entryDx=0;entryDy=0;fontSize=8;" edge="1" parent="1" source="p_OIgGEhC8bRpb1Tx-OY-46" target="p_OIgGEhC8bRpb1Tx-OY-3">
          <mxGeometry relative="1" as="geometry" />
        </mxCell>
        <mxCell id="p_OIgGEhC8bRpb1Tx-OY-53" style="edgeStyle=orthogonalEdgeStyle;rounded=0;orthogonalLoop=1;jettySize=auto;html=1;entryX=0.5;entryY=0;entryDx=0;entryDy=0;entryPerimeter=0;fontSize=8;" edge="1" parent="1" source="p_OIgGEhC8bRpb1Tx-OY-46" target="p_OIgGEhC8bRpb1Tx-OY-8">
          <mxGeometry relative="1" as="geometry">
            <Array as="points">
              <mxPoint x="527.5" y="770" />
              <mxPoint x="467.5" y="770" />
            </Array>
          </mxGeometry>
        </mxCell>
        <mxCell id="p_OIgGEhC8bRpb1Tx-OY-54" style="edgeStyle=orthogonalEdgeStyle;rounded=0;orthogonalLoop=1;jettySize=auto;html=1;entryX=0.5;entryY=0;entryDx=0;entryDy=0;entryPerimeter=0;fontSize=8;" edge="1" parent="1" source="p_OIgGEhC8bRpb1Tx-OY-46" target="p_OIgGEhC8bRpb1Tx-OY-5">
          <mxGeometry relative="1" as="geometry">
            <Array as="points">
              <mxPoint x="527.5" y="770" />
              <mxPoint x="672.5" y="770" />
            </Array>
          </mxGeometry>
        </mxCell>
        <mxCell id="p_OIgGEhC8bRpb1Tx-OY-103" style="edgeStyle=orthogonalEdgeStyle;rounded=0;orthogonalLoop=1;jettySize=auto;html=1;entryX=0.549;entryY=-0.014;entryDx=0;entryDy=0;entryPerimeter=0;fontSize=8;" edge="1" parent="1" source="p_OIgGEhC8bRpb1Tx-OY-55" target="p_OIgGEhC8bRpb1Tx-OY-88">
          <mxGeometry relative="1" as="geometry" />
        </mxCell>
        <mxCell id="p_OIgGEhC8bRpb1Tx-OY-104" style="edgeStyle=orthogonalEdgeStyle;rounded=0;orthogonalLoop=1;jettySize=auto;html=1;fontSize=8;" edge="1" parent="1" source="p_OIgGEhC8bRpb1Tx-OY-55" target="p_OIgGEhC8bRpb1Tx-OY-21">
          <mxGeometry relative="1" as="geometry" />
        </mxCell>
        <mxCell id="p_OIgGEhC8bRpb1Tx-OY-55" value="" style="outlineConnect=0;dashed=0;verticalLabelPosition=bottom;verticalAlign=top;align=center;html=1;shape=mxgraph.aws3.api_gateway;fillColor=#D9A741;gradientColor=none;fontSize=8;" vertex="1" parent="1">
          <mxGeometry x="387.5" y="170" width="60" height="70" as="geometry" />
        </mxCell>
        <mxCell id="p_OIgGEhC8bRpb1Tx-OY-94" style="edgeStyle=orthogonalEdgeStyle;rounded=0;orthogonalLoop=1;jettySize=auto;html=1;fontSize=8;" edge="1" parent="1" source="p_OIgGEhC8bRpb1Tx-OY-92" target="p_OIgGEhC8bRpb1Tx-OY-11">
          <mxGeometry relative="1" as="geometry" />
        </mxCell>
        <mxCell id="p_OIgGEhC8bRpb1Tx-OY-95" style="edgeStyle=orthogonalEdgeStyle;rounded=0;orthogonalLoop=1;jettySize=auto;html=1;fontSize=8;" edge="1" parent="1" source="p_OIgGEhC8bRpb1Tx-OY-92" target="p_OIgGEhC8bRpb1Tx-OY-3">
          <mxGeometry relative="1" as="geometry" />
        </mxCell>
        <mxCell id="p_OIgGEhC8bRpb1Tx-OY-96" style="edgeStyle=orthogonalEdgeStyle;rounded=0;orthogonalLoop=1;jettySize=auto;html=1;fontSize=8;" edge="1" parent="1" source="p_OIgGEhC8bRpb1Tx-OY-85" target="p_OIgGEhC8bRpb1Tx-OY-8">
          <mxGeometry relative="1" as="geometry">
            <Array as="points">
              <mxPoint x="467.5" y="575" />
            </Array>
          </mxGeometry>
        </mxCell>
        <mxCell id="p_OIgGEhC8bRpb1Tx-OY-97" style="edgeStyle=orthogonalEdgeStyle;rounded=0;orthogonalLoop=1;jettySize=auto;html=1;entryX=0.5;entryY=0;entryDx=0;entryDy=0;entryPerimeter=0;fontSize=8;exitX=0.5;exitY=1;exitDx=0;exitDy=0;" edge="1" parent="1" source="p_OIgGEhC8bRpb1Tx-OY-92" target="p_OIgGEhC8bRpb1Tx-OY-5">
          <mxGeometry relative="1" as="geometry">
            <Array as="points">
              <mxPoint x="124.5" y="590" />
              <mxPoint x="124.5" y="770" />
              <mxPoint x="672.5" y="770" />
            </Array>
          </mxGeometry>
        </mxCell>
        <mxCell id="p_OIgGEhC8bRpb1Tx-OY-105" value="API Gateway" style="text;html=1;strokeColor=none;fillColor=none;align=center;verticalAlign=middle;whiteSpace=wrap;rounded=0;fontSize=8;" vertex="1" parent="1">
          <mxGeometry x="390.5" y="240" width="60" height="30" as="geometry" />
        </mxCell>
        <mxCell id="p_OIgGEhC8bRpb1Tx-OY-111" style="edgeStyle=orthogonalEdgeStyle;rounded=0;orthogonalLoop=1;jettySize=auto;html=1;entryX=0.5;entryY=0;entryDx=0;entryDy=0;entryPerimeter=0;fontSize=18;" edge="1" parent="1" source="p_OIgGEhC8bRpb1Tx-OY-110" target="p_OIgGEhC8bRpb1Tx-OY-55">
          <mxGeometry relative="1" as="geometry" />
        </mxCell>
        <mxCell id="p_OIgGEhC8bRpb1Tx-OY-112" value="" style="edgeStyle=orthogonalEdgeStyle;rounded=0;orthogonalLoop=1;jettySize=auto;html=1;fontSize=18;" edge="1" parent="1" source="p_OIgGEhC8bRpb1Tx-OY-110" target="p_OIgGEhC8bRpb1Tx-OY-55">
          <mxGeometry relative="1" as="geometry" />
        </mxCell>
        <mxCell id="p_OIgGEhC8bRpb1Tx-OY-110" value="Client" style="shape=umlActor;verticalLabelPosition=bottom;verticalAlign=top;html=1;outlineConnect=0;fontSize=18;" vertex="1" parent="1">
          <mxGeometry x="403" y="10" width="30" height="60" as="geometry" />
        </mxCell>
        <mxCell id="p_OIgGEhC8bRpb1Tx-OY-113" value="&lt;font style=&quot;font-size: 10px;&quot;&gt;https&lt;/font&gt;" style="text;html=1;strokeColor=none;fillColor=none;align=center;verticalAlign=middle;whiteSpace=wrap;rounded=0;fontSize=18;" vertex="1" parent="1">
          <mxGeometry x="425" y="120" width="45" as="geometry" />
        </mxCell>
        <mxCell id="p_OIgGEhC8bRpb1Tx-OY-114" value="&lt;font style=&quot;font-size: 10px;&quot;&gt;https&lt;/font&gt;" style="text;html=1;strokeColor=none;fillColor=none;align=center;verticalAlign=middle;whiteSpace=wrap;rounded=0;fontSize=18;" vertex="1" parent="1">
          <mxGeometry x="270" y="180" width="32.5" height="20" as="geometry" />
        </mxCell>
        <mxCell id="p_OIgGEhC8bRpb1Tx-OY-115" value="&lt;font style=&quot;font-size: 10px;&quot;&gt;https&lt;/font&gt;" style="text;html=1;strokeColor=none;fillColor=none;align=center;verticalAlign=middle;whiteSpace=wrap;rounded=0;fontSize=18;" vertex="1" parent="1">
          <mxGeometry x="540" y="180" width="30" height="20" as="geometry" />
        </mxCell>
      </root>
    </mxGraphModel>
  </diagram>
</mxfile>
